# xmcd
#
# Track frame offsets:
#	150
#	36927
#	58105
#	91425
#	131002
#	165532
#
# Disc length: 2644 seconds
#
# Revision: 0
# Processed by: cddbd v1.5.2PL0 Copyright (c) Steve Scherf et al.
# Submitted via: audiograbber 1.83.01
#
DISCID=4d0a5206
DTITLE=Eric Clapton - Just One Night [MFSL] Disc 2
DYEAR=1980
DGENRE=Blues-Rock
TTITLE0=Double Trouble
TTITLE1=Setting Me Up
TTITLE2=Blues Power
TTITLE3=Rambling On My Mind
TTITLE4=Cocaine
TTITLE5=Further On Up the Road
EXTD=YEAR: 1980
EXTT0=
EXTT1=
EXTT2=
EXTT3=
EXTT4=
EXTT5=
PLAYORDER=
